<svg width="20" height="19" viewBox="0 0 20 19" fill="none" xmlns="http://www.w3.org/2000/svg">
<path d="M10 0C6.12297 0 2.96875 2.99651 2.96875 6.67969C2.96875 7.92411 3.3316 9.13855 4.01832 10.1922L9.59977 18.7369C9.70668 18.9005 9.89504 19 10.0976 19C10.0992 19 10.1007 19 10.1023 19C10.3066 18.9985 10.4954 18.8959 10.6003 18.7294L16.0395 10.1019C16.6883 9.07057 17.0312 7.88719 17.0312 6.67969C17.0312 2.99651 13.877 0 10 0ZM15.0338 9.53036L10.0887 17.3741L5.01434 9.60561C4.44273 8.72864 4.13281 7.71689 4.13281 6.67969C4.13281 3.61037 6.76914 1.10586 10 1.10586C13.2309 1.10586 15.8633 3.61037 15.8633 6.67969C15.8633 7.68613 15.5738 8.67202 15.0338 9.53036Z" fill="#F27270"/>
<path d="M10 3.33984C8.06148 3.33984 6.48438 4.8381 6.48438 6.67969C6.48438 8.50951 8.03582 10.0195 10 10.0195C11.9884 10.0195 13.5156 8.4894 13.5156 6.67969C13.5156 4.8381 11.9385 3.33984 10 3.33984ZM10 8.91367C8.7009 8.91367 7.64844 7.91049 7.64844 6.67969C7.64844 5.45196 8.70766 4.4457 10 4.4457C11.2923 4.4457 12.3477 5.45196 12.3477 6.67969C12.3477 7.89253 11.3197 8.91367 10 8.91367Z" fill="#F27270"/>
</svg>
