<svg width="614" height="805" viewBox="0 0 614 805" fill="none" xmlns="http://www.w3.org/2000/svg">
<path d="M202.293 630.825L109.031 805H538.034L375.759 651.961L351.85 518.977L383.22 403.271L308.441 393.706L258.589 419.316H195.68L211.11 492.596L202.293 630.825Z" fill="#F7A567"/>
<path d="M59.3484 336.317L74.4398 282.784L138.027 265.659L161.258 235.576L233.324 205.801L313.189 217.68L298.267 255.014L308.102 353.75L259.945 410.677H161.258L126.327 440.143L118.866 367.788L59.3484 336.317Z" fill="#52C1AD"/>
<path d="M122.9 24.9923L119 12.1876L148.335 0H438.463L432.02 7.55941L390.985 14.5017L374.876 139.155L366.397 151.034L362.328 161.833L351.306 176.798L311.458 211.355L235.492 192.688V182.197L213.788 155.354L202.766 64.6407L144.435 27.3064L122.9 24.9923Z" fill="#88CEEC"/>
<path d="M536.169 14.0389L419.847 24.0667L386.442 79.4509L376.268 146.714L341.168 192.225L382.711 186.363L457.49 240.513L534.134 228.016L589.752 121.413L614 132.521L597.891 84.8505L547.021 51.0646L536.169 14.0389Z" fill="#B09BCA"/>
<path d="M320.65 220.766L327.433 198.859L382.372 197.316L459.355 243.752L495.642 241.284L551.26 282.321L562.452 382.444L514.973 368.097L500.221 351.435L433.412 411.756L305.389 379.205L312.172 345.11L305.389 297.594L303.185 255.94L320.65 220.766Z" fill="#FFD281"/>
<path d="M38.4916 225.842L3.90003 222.294L0 145.928L28.3176 62.312L130.736 33L193.814 65.2432L212.636 168.144L215.349 167.218L229.084 182.028L220.775 207.175L166.006 228.773L153.118 237.258L138.366 257.931L59.0091 269.502L38.4916 225.842Z" fill="#F27270"/>
<path d="M90.5945 148.192L87.5705 144.904C86.8345 145.096 86.0665 145.192 85.2665 145.192C83.6825 145.192 82.2505 144.824 80.9705 144.088C79.7065 143.336 78.7065 142.304 77.9705 140.992C77.2345 139.664 76.8665 138.168 76.8665 136.504C76.8665 134.84 77.2345 133.352 77.9705 132.04C78.7065 130.712 79.7065 129.68 80.9705 128.944C82.2505 128.208 83.6825 127.84 85.2665 127.84C86.8345 127.84 88.2505 128.208 89.5145 128.944C90.7945 129.68 91.7945 130.712 92.5145 132.04C93.2505 133.352 93.6185 134.84 93.6185 136.504C93.6185 138.104 93.2745 139.552 92.5865 140.848C91.8985 142.144 90.9625 143.168 89.7785 143.92L93.9785 148.192H90.5945ZM79.6745 136.504C79.6745 137.736 79.9065 138.816 80.3705 139.744C80.8505 140.672 81.5145 141.384 82.3625 141.88C83.2105 142.376 84.1785 142.624 85.2665 142.624C86.3385 142.624 87.2905 142.376 88.1225 141.88C88.9705 141.384 89.6265 140.672 90.0905 139.744C90.5705 138.816 90.8105 137.736 90.8105 136.504C90.8105 135.272 90.5705 134.192 90.0905 133.264C89.6265 132.336 88.9705 131.624 88.1225 131.128C87.2905 130.632 86.3385 130.384 85.2665 130.384C84.1785 130.384 83.2105 130.632 82.3625 131.128C81.5145 131.624 80.8505 132.336 80.3705 133.264C79.9065 134.192 79.6745 135.272 79.6745 136.504ZM109.291 131.776V145H106.531V142.12C106.195 143.096 105.611 143.856 104.779 144.4C103.947 144.928 102.979 145.192 101.875 145.192C100.339 145.192 99.1074 144.696 98.1794 143.704C97.2514 142.712 96.7874 141.296 96.7874 139.456V131.776H99.5234V139.168C99.5234 140.368 99.8274 141.296 100.435 141.952C101.043 142.592 101.875 142.912 102.931 142.912C104.019 142.912 104.891 142.56 105.547 141.856C106.203 141.152 106.531 140.128 106.531 138.784V131.776H109.291ZM125.576 137.752C125.576 138.2 125.544 138.592 125.48 138.928H115.304C115.352 140.288 115.728 141.296 116.432 141.952C117.136 142.608 118.008 142.936 119.048 142.936C119.96 142.936 120.728 142.704 121.352 142.24C121.992 141.776 122.384 141.16 122.528 140.392H125.456C125.28 141.32 124.912 142.144 124.352 142.864C123.792 143.584 123.064 144.152 122.168 144.568C121.272 144.968 120.272 145.168 119.168 145.168C117.888 145.168 116.752 144.896 115.76 144.352C114.784 143.808 114.016 143.024 113.456 142C112.896 140.976 112.616 139.768 112.616 138.376C112.616 137 112.896 135.8 113.456 134.776C114.016 133.752 114.784 132.968 115.76 132.424C116.752 131.88 117.888 131.608 119.168 131.608C120.464 131.608 121.592 131.88 122.552 132.424C123.528 132.952 124.272 133.688 124.784 134.632C125.312 135.56 125.576 136.6 125.576 137.752ZM122.816 137.68C122.848 136.816 122.696 136.096 122.36 135.52C122.04 134.928 121.592 134.496 121.016 134.224C120.456 133.936 119.84 133.792 119.168 133.792C118.096 133.792 117.2 134.12 116.48 134.776C115.76 135.432 115.368 136.4 115.304 137.68H122.816ZM141.226 137.752C141.226 138.2 141.194 138.592 141.13 138.928H130.954C131.002 140.288 131.378 141.296 132.082 141.952C132.786 142.608 133.658 142.936 134.698 142.936C135.61 142.936 136.378 142.704 137.002 142.24C137.642 141.776 138.034 141.16 138.178 140.392H141.106C140.93 141.32 140.562 142.144 140.002 142.864C139.442 143.584 138.714 144.152 137.818 144.568C136.922 144.968 135.922 145.168 134.818 145.168C133.538 145.168 132.402 144.896 131.41 144.352C130.434 143.808 129.666 143.024 129.106 142C128.546 140.976 128.266 139.768 128.266 138.376C128.266 137 128.546 135.8 129.106 134.776C129.666 133.752 130.434 132.968 131.41 132.424C132.402 131.88 133.538 131.608 134.818 131.608C136.114 131.608 137.242 131.88 138.202 132.424C139.178 132.952 139.922 133.688 140.434 134.632C140.962 135.56 141.226 136.6 141.226 137.752ZM138.466 137.68C138.498 136.816 138.346 136.096 138.01 135.52C137.69 134.928 137.242 134.496 136.666 134.224C136.106 133.936 135.49 133.792 134.818 133.792C133.746 133.792 132.85 134.12 132.13 134.776C131.41 135.432 131.018 136.4 130.954 137.68H138.466ZM147.324 134.368C147.772 133.504 148.412 132.824 149.244 132.328C150.076 131.816 151.036 131.56 152.124 131.56V134.536H151.308C150.108 134.536 149.14 134.832 148.404 135.424C147.684 136 147.324 136.96 147.324 138.304V145H144.588V131.776H147.324V134.368ZM95.1707 156.32V173H92.4107V160.496L87.5867 173H85.1867L80.3387 160.496V173H77.6027V156.32H80.9147L86.4347 169.64L91.8587 156.32H95.1707ZM111.47 165.752C111.47 166.2 111.438 166.592 111.374 166.928H101.198C101.246 168.288 101.622 169.296 102.326 169.952C103.03 170.608 103.902 170.936 104.942 170.936C105.854 170.936 106.622 170.704 107.246 170.24C107.886 169.776 108.278 169.16 108.422 168.392H111.35C111.174 169.32 110.806 170.144 110.246 170.864C109.686 171.584 108.958 172.152 108.062 172.568C107.166 172.968 106.166 173.168 105.062 173.168C103.782 173.168 102.646 172.896 101.654 172.352C100.678 171.808 99.9101 171.024 99.3501 170C98.7901 168.976 98.5101 167.768 98.5101 166.376C98.5101 165 98.7901 163.8 99.3501 162.776C99.9101 161.752 100.678 160.968 101.654 160.424C102.646 159.88 103.782 159.608 105.062 159.608C106.358 159.608 107.486 159.88 108.446 160.424C109.422 160.952 110.166 161.688 110.678 162.632C111.206 163.56 111.47 164.6 111.47 165.752ZM108.71 165.68C108.742 164.816 108.59 164.096 108.254 163.52C107.934 162.928 107.486 162.496 106.91 162.224C106.35 161.936 105.734 161.792 105.062 161.792C103.99 161.792 103.094 162.12 102.374 162.776C101.654 163.432 101.262 164.4 101.198 165.68H108.71ZM120.136 159.608C121.336 159.608 122.36 159.904 123.208 160.496C124.056 161.088 124.648 161.872 124.984 162.848V155.24H127.744V173H124.984V169.928C124.648 170.904 124.056 171.688 123.208 172.28C122.36 172.872 121.336 173.168 120.136 173.168C118.984 173.168 117.952 172.896 117.04 172.352C116.144 171.808 115.44 171.024 114.928 170C114.416 168.976 114.16 167.768 114.16 166.376C114.16 165 114.416 163.8 114.928 162.776C115.44 161.752 116.144 160.968 117.04 160.424C117.952 159.88 118.984 159.608 120.136 159.608ZM120.976 162.008C119.76 162.008 118.784 162.4 118.048 163.184C117.328 163.952 116.968 165.016 116.968 166.376C116.968 167.736 117.328 168.808 118.048 169.592C118.784 170.36 119.76 170.744 120.976 170.744C121.744 170.744 122.432 170.568 123.04 170.216C123.648 169.848 124.128 169.336 124.48 168.68C124.832 168.024 125.008 167.256 125.008 166.376C125.008 165.512 124.832 164.752 124.48 164.096C124.128 163.424 123.648 162.912 123.04 162.56C122.432 162.192 121.744 162.008 120.976 162.008ZM131.363 155.936C131.363 155.472 131.523 155.088 131.843 154.784C132.163 154.48 132.587 154.328 133.115 154.328C133.643 154.328 134.067 154.48 134.387 154.784C134.723 155.088 134.891 155.472 134.891 155.936C134.891 156.4 134.723 156.776 134.387 157.064C134.067 157.352 133.643 157.496 133.115 157.496C132.587 157.496 132.163 157.352 131.843 157.064C131.523 156.776 131.363 156.4 131.363 155.936ZM134.483 159.776V173H131.747V159.776H134.483ZM143.818 159.608C145.018 159.608 146.042 159.904 146.89 160.496C147.738 161.088 148.338 161.872 148.69 162.848V159.776H151.426V173H148.69V169.928C148.338 170.904 147.738 171.688 146.89 172.28C146.042 172.872 145.018 173.168 143.818 173.168C142.666 173.168 141.634 172.896 140.722 172.352C139.826 171.808 139.122 171.024 138.61 170C138.098 168.976 137.842 167.768 137.842 166.376C137.842 165 138.098 163.8 138.61 162.776C139.122 161.752 139.826 160.968 140.722 160.424C141.634 159.88 142.666 159.608 143.818 159.608ZM144.658 162.008C143.442 162.008 142.466 162.4 141.73 163.184C141.01 163.952 140.65 165.016 140.65 166.376C140.65 167.736 141.01 168.808 141.73 169.592C142.466 170.36 143.442 170.744 144.658 170.744C145.426 170.744 146.114 170.568 146.722 170.216C147.33 169.848 147.81 169.336 148.162 168.68C148.514 168.024 148.69 167.256 148.69 166.376C148.69 165.512 148.514 164.752 148.162 164.096C147.81 163.424 147.33 162.912 146.722 162.56C146.114 162.192 145.426 162.008 144.658 162.008Z" fill="black"/>
<path d="M138.102 299.888C140.182 299.888 141.91 300.416 143.286 301.472C144.662 302.528 145.59 303.96 146.07 305.768H143.166C142.766 304.744 142.126 303.936 141.246 303.344C140.382 302.736 139.318 302.432 138.054 302.432C137.046 302.432 136.142 302.68 135.342 303.176C134.558 303.672 133.934 304.384 133.47 305.312C133.022 306.224 132.798 307.296 132.798 308.528C132.798 309.744 133.022 310.816 133.47 311.744C133.934 312.656 134.558 313.36 135.342 313.856C136.142 314.352 137.046 314.6 138.054 314.6C139.318 314.6 140.382 314.304 141.246 313.712C142.126 313.104 142.766 312.296 143.166 311.288H146.07C145.59 313.096 144.662 314.528 143.286 315.584C141.91 316.624 140.182 317.144 138.102 317.144C136.502 317.144 135.086 316.784 133.854 316.064C132.622 315.328 131.67 314.312 130.998 313.016C130.326 311.704 129.99 310.208 129.99 308.528C129.99 306.848 130.326 305.36 130.998 304.064C131.67 302.752 132.622 301.728 133.854 300.992C135.086 300.256 136.502 299.888 138.102 299.888ZM155.567 303.608C156.847 303.608 157.999 303.88 159.023 304.424C160.047 304.968 160.847 305.752 161.423 306.776C161.999 307.8 162.287 309 162.287 310.376C162.287 311.768 161.999 312.976 161.423 314C160.847 315.024 160.047 315.808 159.023 316.352C157.999 316.896 156.847 317.168 155.567 317.168C154.287 317.168 153.135 316.896 152.111 316.352C151.103 315.808 150.303 315.024 149.711 314C149.135 312.96 148.847 311.752 148.847 310.376C148.847 309 149.135 307.8 149.711 306.776C150.303 305.752 151.103 304.968 152.111 304.424C153.135 303.88 154.287 303.608 155.567 303.608ZM155.567 305.984C154.863 305.984 154.215 306.144 153.623 306.464C153.031 306.784 152.551 307.28 152.183 307.952C151.831 308.608 151.655 309.416 151.655 310.376C151.655 311.352 151.831 312.168 152.183 312.824C152.551 313.48 153.031 313.968 153.623 314.288C154.215 314.608 154.863 314.768 155.567 314.768C156.271 314.768 156.919 314.608 157.511 314.288C158.103 313.968 158.575 313.48 158.927 312.824C159.295 312.168 159.479 311.352 159.479 310.376C159.479 309.416 159.295 308.608 158.927 307.952C158.575 307.28 158.103 306.784 157.511 306.464C156.919 306.144 156.271 305.984 155.567 305.984ZM173.03 303.56C174.566 303.56 175.798 304.056 176.726 305.048C177.654 306.04 178.118 307.456 178.118 309.296V317H175.382V309.584C175.382 308.4 175.078 307.488 174.47 306.848C173.862 306.192 173.03 305.864 171.974 305.864C170.886 305.864 170.014 306.216 169.358 306.92C168.702 307.608 168.374 308.624 168.374 309.968V317H165.638V303.776H168.374V306.68C168.726 305.688 169.318 304.92 170.15 304.376C170.982 303.832 171.942 303.56 173.03 303.56ZM186.382 303.608C187.934 303.608 189.174 304.008 190.102 304.808C191.046 305.592 191.622 306.648 191.83 307.976H189.238C189.126 307.256 188.814 306.68 188.302 306.248C187.806 305.8 187.142 305.576 186.31 305.576C185.622 305.576 185.086 305.744 184.702 306.08C184.334 306.4 184.15 306.84 184.15 307.4C184.15 307.816 184.286 308.152 184.558 308.408C184.83 308.664 185.166 308.864 185.566 309.008C185.982 309.152 186.566 309.312 187.318 309.488C188.31 309.712 189.11 309.944 189.718 310.184C190.342 310.424 190.87 310.808 191.302 311.336C191.75 311.848 191.974 312.552 191.974 313.448C191.974 314.552 191.55 315.448 190.702 316.136C189.87 316.824 188.742 317.168 187.318 317.168C185.67 317.168 184.334 316.784 183.31 316.016C182.302 315.248 181.694 314.176 181.486 312.8H184.15C184.23 313.52 184.55 314.104 185.11 314.552C185.67 315 186.406 315.224 187.318 315.224C187.974 315.224 188.486 315.056 188.854 314.72C189.238 314.368 189.43 313.928 189.43 313.4C189.43 312.936 189.286 312.568 188.998 312.296C188.71 312.024 188.35 311.816 187.918 311.672C187.486 311.512 186.894 311.352 186.142 311.192C185.182 310.968 184.398 310.744 183.79 310.52C183.198 310.296 182.686 309.936 182.254 309.44C181.838 308.928 181.63 308.24 181.63 307.376C181.63 306.256 182.046 305.352 182.878 304.664C183.726 303.96 184.894 303.608 186.382 303.608ZM201.317 303.608C203.029 303.608 204.445 304.064 205.565 304.976C206.685 305.872 207.381 307.096 207.653 308.648H204.749C204.589 307.816 204.197 307.168 203.573 306.704C202.965 306.224 202.197 305.984 201.269 305.984C200.213 305.984 199.333 306.36 198.629 307.112C197.925 307.848 197.573 308.936 197.573 310.376C197.573 311.816 197.925 312.912 198.629 313.664C199.333 314.416 200.213 314.792 201.269 314.792C202.197 314.792 202.965 314.552 203.573 314.072C204.197 313.592 204.589 312.936 204.749 312.104H207.653C207.381 313.656 206.685 314.888 205.565 315.8C204.445 316.712 203.029 317.168 201.317 317.168C200.037 317.168 198.901 316.896 197.909 316.352C196.933 315.808 196.165 315.024 195.605 314C195.045 312.976 194.765 311.768 194.765 310.376C194.765 309 195.045 307.8 195.605 306.776C196.165 305.752 196.933 304.968 197.909 304.424C198.901 303.88 200.037 303.608 201.317 303.608ZM210.633 299.936C210.633 299.472 210.793 299.088 211.113 298.784C211.433 298.48 211.857 298.328 212.385 298.328C212.913 298.328 213.337 298.48 213.657 298.784C213.993 299.088 214.161 299.472 214.161 299.936C214.161 300.4 213.993 300.776 213.657 301.064C213.337 301.352 212.913 301.496 212.385 301.496C211.857 301.496 211.433 301.352 211.113 301.064C210.793 300.776 210.633 300.4 210.633 299.936ZM213.753 303.776V317H211.017V303.776H213.753ZM223.832 303.608C225.112 303.608 226.264 303.88 227.288 304.424C228.312 304.968 229.112 305.752 229.688 306.776C230.264 307.8 230.552 309 230.552 310.376C230.552 311.768 230.264 312.976 229.688 314C229.112 315.024 228.312 315.808 227.288 316.352C226.264 316.896 225.112 317.168 223.832 317.168C222.552 317.168 221.4 316.896 220.376 316.352C219.368 315.808 218.568 315.024 217.976 314C217.4 312.96 217.112 311.752 217.112 310.376C217.112 309 217.4 307.8 217.976 306.776C218.568 305.752 219.368 304.968 220.376 304.424C221.4 303.88 222.552 303.608 223.832 303.608ZM223.832 305.984C223.128 305.984 222.48 306.144 221.888 306.464C221.296 306.784 220.816 307.28 220.448 307.952C220.096 308.608 219.92 309.416 219.92 310.376C219.92 311.352 220.096 312.168 220.448 312.824C220.816 313.48 221.296 313.968 221.888 314.288C222.48 314.608 223.128 314.768 223.832 314.768C224.536 314.768 225.184 314.608 225.776 314.288C226.368 313.968 226.84 313.48 227.192 312.824C227.56 312.168 227.744 311.352 227.744 310.376C227.744 309.416 227.56 308.608 227.192 307.952C226.84 307.28 226.368 306.784 225.776 306.464C225.184 306.144 224.536 305.984 223.832 305.984ZM246.094 303.776V317H243.334V314.12C242.998 315.096 242.414 315.856 241.582 316.4C240.75 316.928 239.782 317.192 238.678 317.192C237.142 317.192 235.91 316.696 234.982 315.704C234.054 314.712 233.59 313.296 233.59 311.456V303.776H236.326V311.168C236.326 312.368 236.63 313.296 237.238 313.952C237.846 314.592 238.678 314.912 239.734 314.912C240.822 314.912 241.694 314.56 242.35 313.856C243.006 313.152 243.334 312.128 243.334 310.784V303.776H246.094ZM254.435 303.608C255.987 303.608 257.227 304.008 258.155 304.808C259.099 305.592 259.675 306.648 259.883 307.976H257.291C257.179 307.256 256.867 306.68 256.355 306.248C255.859 305.8 255.195 305.576 254.363 305.576C253.675 305.576 253.139 305.744 252.755 306.08C252.387 306.4 252.203 306.84 252.203 307.4C252.203 307.816 252.339 308.152 252.611 308.408C252.883 308.664 253.219 308.864 253.619 309.008C254.035 309.152 254.619 309.312 255.371 309.488C256.363 309.712 257.163 309.944 257.771 310.184C258.395 310.424 258.923 310.808 259.355 311.336C259.803 311.848 260.027 312.552 260.027 313.448C260.027 314.552 259.603 315.448 258.755 316.136C257.923 316.824 256.795 317.168 255.371 317.168C253.723 317.168 252.387 316.784 251.363 316.016C250.355 315.248 249.747 314.176 249.539 312.8H252.203C252.283 313.52 252.603 314.104 253.163 314.552C253.723 315 254.459 315.224 255.371 315.224C256.027 315.224 256.539 315.056 256.907 314.72C257.291 314.368 257.483 313.928 257.483 313.4C257.483 312.936 257.339 312.568 257.051 312.296C256.763 312.024 256.403 311.816 255.971 311.672C255.539 311.512 254.947 311.352 254.195 311.192C253.235 310.968 252.451 310.744 251.843 310.52C251.251 310.296 250.739 309.936 250.307 309.44C249.891 308.928 249.683 308.24 249.683 307.376C249.683 306.256 250.099 305.352 250.931 304.664C251.779 303.96 252.947 303.608 254.435 303.608ZM143.153 338.424V345H140.417V328.056H146.177C148.129 328.056 149.593 328.52 150.569 329.448C151.561 330.376 152.057 331.648 152.057 333.264C152.057 334.864 151.553 336.128 150.545 337.056C149.537 337.968 148.081 338.424 146.177 338.424H143.153ZM145.889 336.192C148.145 336.192 149.273 335.216 149.273 333.264C149.273 332.304 149.001 331.576 148.457 331.08C147.929 330.568 147.073 330.312 145.889 330.312H143.153V336.192H145.889ZM157.912 334.368C158.36 333.504 159 332.824 159.832 332.328C160.664 331.816 161.624 331.56 162.712 331.56V334.536H161.896C160.696 334.536 159.728 334.832 158.992 335.424C158.272 336 157.912 336.96 157.912 338.304V345H155.176V331.776H157.912V334.368ZM171.53 331.608C172.81 331.608 173.962 331.88 174.986 332.424C176.01 332.968 176.81 333.752 177.386 334.776C177.962 335.8 178.25 337 178.25 338.376C178.25 339.768 177.962 340.976 177.386 342C176.81 343.024 176.01 343.808 174.986 344.352C173.962 344.896 172.81 345.168 171.53 345.168C170.25 345.168 169.098 344.896 168.074 344.352C167.066 343.808 166.266 343.024 165.674 342C165.098 340.96 164.81 339.752 164.81 338.376C164.81 337 165.098 335.8 165.674 334.776C166.266 333.752 167.066 332.968 168.074 332.424C169.098 331.88 170.25 331.608 171.53 331.608ZM171.53 333.984C170.826 333.984 170.178 334.144 169.586 334.464C168.994 334.784 168.514 335.28 168.146 335.952C167.794 336.608 167.618 337.416 167.618 338.376C167.618 339.352 167.794 340.168 168.146 340.824C168.514 341.48 168.994 341.968 169.586 342.288C170.178 342.608 170.826 342.768 171.53 342.768C172.234 342.768 172.882 342.608 173.474 342.288C174.066 341.968 174.538 341.48 174.89 340.824C175.258 340.168 175.442 339.352 175.442 338.376C175.442 337.416 175.258 336.608 174.89 335.952C174.538 335.28 174.066 334.784 173.474 334.464C172.882 334.144 172.234 333.984 171.53 333.984ZM186.905 331.608C188.105 331.608 189.129 331.904 189.977 332.496C190.825 333.088 191.417 333.872 191.753 334.848V327.24H194.513V345H191.753V341.928C191.417 342.904 190.825 343.688 189.977 344.28C189.129 344.872 188.105 345.168 186.905 345.168C185.753 345.168 184.721 344.896 183.809 344.352C182.913 343.808 182.209 343.024 181.697 342C181.185 340.976 180.929 339.768 180.929 338.376C180.929 337 181.185 335.8 181.697 334.776C182.209 333.752 182.913 332.968 183.809 332.424C184.721 331.88 185.753 331.608 186.905 331.608ZM187.745 334.008C186.529 334.008 185.553 334.4 184.817 335.184C184.097 335.952 183.737 337.016 183.737 338.376C183.737 339.736 184.097 340.808 184.817 341.592C185.553 342.36 186.529 342.744 187.745 342.744C188.513 342.744 189.201 342.568 189.809 342.216C190.417 341.848 190.897 341.336 191.249 340.68C191.601 340.024 191.777 339.256 191.777 338.376C191.777 337.512 191.601 336.752 191.249 336.096C190.897 335.424 190.417 334.912 189.809 334.56C189.201 334.192 188.513 334.008 187.745 334.008ZM210.708 331.776V345H207.948V342.12C207.612 343.096 207.028 343.856 206.196 344.4C205.364 344.928 204.396 345.192 203.292 345.192C201.756 345.192 200.524 344.696 199.596 343.704C198.668 342.712 198.204 341.296 198.204 339.456V331.776H200.94V339.168C200.94 340.368 201.244 341.296 201.852 341.952C202.46 342.592 203.292 342.912 204.348 342.912C205.436 342.912 206.308 342.56 206.964 341.856C207.62 341.152 207.948 340.128 207.948 338.784V331.776H210.708ZM220.585 331.608C222.297 331.608 223.713 332.064 224.833 332.976C225.953 333.872 226.649 335.096 226.921 336.648H224.017C223.857 335.816 223.465 335.168 222.841 334.704C222.233 334.224 221.465 333.984 220.537 333.984C219.481 333.984 218.601 334.36 217.897 335.112C217.193 335.848 216.841 336.936 216.841 338.376C216.841 339.816 217.193 340.912 217.897 341.664C218.601 342.416 219.481 342.792 220.537 342.792C221.465 342.792 222.233 342.552 222.841 342.072C223.465 341.592 223.857 340.936 224.017 340.104H226.921C226.649 341.656 225.953 342.888 224.833 343.8C223.713 344.712 222.297 345.168 220.585 345.168C219.305 345.168 218.169 344.896 217.177 344.352C216.201 343.808 215.433 343.024 214.873 342C214.313 340.976 214.033 339.768 214.033 338.376C214.033 337 214.313 335.8 214.873 334.776C215.433 333.752 216.201 332.968 217.177 332.424C218.169 331.88 219.305 331.608 220.585 331.608ZM236.932 342.624V345H235.252C233.844 345 232.772 344.664 232.036 343.992C231.316 343.304 230.956 342.168 230.956 340.584V334.104H229.06V331.776H230.956V328.488H233.716V331.776H236.908V334.104H233.716V340.632C233.716 341.384 233.852 341.904 234.124 342.192C234.412 342.48 234.908 342.624 235.612 342.624H236.932ZM244.559 331.608C246.111 331.608 247.351 332.008 248.279 332.808C249.223 333.592 249.799 334.648 250.007 335.976H247.415C247.303 335.256 246.991 334.68 246.479 334.248C245.983 333.8 245.319 333.576 244.487 333.576C243.799 333.576 243.263 333.744 242.879 334.08C242.511 334.4 242.327 334.84 242.327 335.4C242.327 335.816 242.463 336.152 242.735 336.408C243.007 336.664 243.343 336.864 243.743 337.008C244.159 337.152 244.743 337.312 245.495 337.488C246.487 337.712 247.287 337.944 247.895 338.184C248.519 338.424 249.047 338.808 249.479 339.336C249.927 339.848 250.151 340.552 250.151 341.448C250.151 342.552 249.727 343.448 248.879 344.136C248.047 344.824 246.919 345.168 245.495 345.168C243.847 345.168 242.511 344.784 241.487 344.016C240.479 343.248 239.871 342.176 239.663 340.8H242.327C242.407 341.52 242.727 342.104 243.287 342.552C243.847 343 244.583 343.224 245.495 343.224C246.151 343.224 246.663 343.056 247.031 342.72C247.415 342.368 247.607 341.928 247.607 341.4C247.607 340.936 247.463 340.568 247.175 340.296C246.887 340.024 246.527 339.816 246.095 339.672C245.663 339.512 245.071 339.352 244.319 339.192C243.359 338.968 242.575 338.744 241.967 338.52C241.375 338.296 240.863 337.936 240.431 337.44C240.015 336.928 239.807 336.24 239.807 335.376C239.807 334.256 240.223 333.352 241.055 332.664C241.903 331.96 243.071 331.608 244.559 331.608Z" fill="black"/>
<path d="M359.798 296.864H365.654V299H357.062V282.056H359.798V296.864ZM376.268 281.912C378.284 281.912 379.964 282.408 381.308 283.4C382.652 284.392 383.54 285.744 383.972 287.456H381.092C380.724 286.544 380.116 285.816 379.268 285.272C378.436 284.728 377.444 284.456 376.292 284.456C375.236 284.456 374.284 284.704 373.436 285.2C372.604 285.696 371.948 286.4 371.468 287.312C371.004 288.224 370.772 289.296 370.772 290.528C370.772 291.824 371.012 292.936 371.492 293.864C371.972 294.792 372.644 295.504 373.508 296C374.388 296.48 375.404 296.72 376.556 296.72C377.964 296.72 379.172 296.288 380.18 295.424C381.188 294.544 381.796 293.344 382.004 291.824H375.788V289.808H384.308V292.424C384.116 293.672 383.668 294.808 382.964 295.832C382.276 296.84 381.356 297.648 380.204 298.256C379.068 298.864 377.764 299.168 376.292 299.168C374.644 299.168 373.188 298.8 371.924 298.064C370.66 297.328 369.684 296.312 368.996 295.016C368.308 293.704 367.964 292.208 367.964 290.528C367.964 288.848 368.308 287.36 368.996 286.064C369.684 284.752 370.652 283.736 371.9 283.016C373.164 282.28 374.62 281.912 376.268 281.912ZM396.631 290.264C397.655 290.472 398.479 290.96 399.103 291.728C399.743 292.496 400.063 293.392 400.063 294.416C400.063 295.824 399.591 296.944 398.647 297.776C397.703 298.592 396.335 299 394.543 299H387.799V282.056H394.423C396.119 282.056 397.415 282.44 398.311 283.208C399.223 283.96 399.679 285 399.679 286.328C399.679 287.4 399.399 288.272 398.839 288.944C398.279 289.6 397.543 290.04 396.631 290.264ZM390.535 289.352H393.919C394.879 289.352 395.607 289.128 396.103 288.68C396.615 288.232 396.871 287.608 396.871 286.808C396.871 286.024 396.615 285.408 396.103 284.96C395.607 284.512 394.847 284.288 393.823 284.288H390.535V289.352ZM393.991 296.744C395.031 296.744 395.831 296.512 396.391 296.048C396.967 295.568 397.255 294.904 397.255 294.056C397.255 293.208 396.967 292.544 396.391 292.064C395.815 291.584 395.007 291.344 393.967 291.344H390.535V296.744H393.991ZM414.251 282.056V284.264H409.523V299H406.763V284.264H402.059V282.056H414.251ZM430.188 302.192L427.164 298.904C426.428 299.096 425.66 299.192 424.86 299.192C423.276 299.192 421.844 298.824 420.564 298.088C419.3 297.336 418.3 296.304 417.564 294.992C416.828 293.664 416.46 292.168 416.46 290.504C416.46 288.84 416.828 287.352 417.564 286.04C418.3 284.712 419.3 283.68 420.564 282.944C421.844 282.208 423.276 281.84 424.86 281.84C426.428 281.84 427.844 282.208 429.108 282.944C430.388 283.68 431.388 284.712 432.108 286.04C432.844 287.352 433.212 288.84 433.212 290.504C433.212 292.104 432.868 293.552 432.18 294.848C431.492 296.144 430.556 297.168 429.372 297.92L433.572 302.192H430.188ZM419.268 290.504C419.268 291.736 419.5 292.816 419.964 293.744C420.444 294.672 421.108 295.384 421.956 295.88C422.804 296.376 423.772 296.624 424.86 296.624C425.932 296.624 426.884 296.376 427.716 295.88C428.564 295.384 429.22 294.672 429.684 293.744C430.164 292.816 430.404 291.736 430.404 290.504C430.404 289.272 430.164 288.192 429.684 287.264C429.22 286.336 428.564 285.624 427.716 285.128C426.884 284.632 425.932 284.384 424.86 284.384C423.772 284.384 422.804 284.632 421.956 285.128C421.108 285.624 420.444 286.336 419.964 287.264C419.5 288.192 419.268 289.272 419.268 290.504ZM439.429 282.056V299H436.693V282.056H439.429ZM453.564 295.328H446.412L445.116 299H442.188L448.428 282.32H451.572L457.788 299H454.86L453.564 295.328ZM452.796 293.216L449.988 285.296L447.18 293.216H452.796ZM471.867 291.608H467.067V296.456H464.403V291.608H459.627V289.088H464.403V284.216H467.067V289.088H471.867V291.608ZM376.667 322.488C376.667 323.32 376.467 324.096 376.067 324.816C375.667 325.52 375.059 326.088 374.243 326.52C373.427 326.952 372.427 327.168 371.243 327.168C370.091 327.168 369.059 326.968 368.147 326.568C367.235 326.152 366.507 325.576 365.963 324.84C365.419 324.104 365.107 323.256 365.027 322.296H367.955C368.035 323.032 368.347 323.664 368.891 324.192C369.451 324.72 370.195 324.984 371.123 324.984C371.955 324.984 372.595 324.76 373.043 324.312C373.507 323.864 373.739 323.288 373.739 322.584C373.739 321.976 373.571 321.48 373.235 321.096C372.899 320.696 372.483 320.384 371.987 320.16C371.491 319.936 370.811 319.68 369.947 319.392C368.891 319.056 368.027 318.72 367.355 318.384C366.699 318.048 366.139 317.56 365.675 316.92C365.211 316.28 364.979 315.44 364.979 314.4C364.979 313.488 365.203 312.688 365.651 312C366.099 311.312 366.739 310.784 367.571 310.416C368.403 310.032 369.363 309.84 370.451 309.84C372.179 309.84 373.547 310.256 374.555 311.088C375.579 311.92 376.163 313.008 376.307 314.352H373.355C373.243 313.712 372.939 313.168 372.443 312.72C371.963 312.256 371.299 312.024 370.451 312.024C369.683 312.024 369.067 312.224 368.603 312.624C368.139 313.008 367.907 313.568 367.907 314.304C367.907 314.88 368.067 315.36 368.387 315.744C368.707 316.112 369.107 316.408 369.587 316.632C370.083 316.84 370.755 317.088 371.603 317.376C372.675 317.712 373.547 318.056 374.219 318.408C374.907 318.744 375.483 319.24 375.947 319.896C376.427 320.552 376.667 321.416 376.667 322.488ZM392.318 313.776V327H389.558V324.12C389.222 325.096 388.638 325.856 387.806 326.4C386.974 326.928 386.006 327.192 384.902 327.192C383.366 327.192 382.134 326.696 381.206 325.704C380.278 324.712 379.814 323.296 379.814 321.456V313.776H382.55V321.168C382.55 322.368 382.854 323.296 383.462 323.952C384.07 324.592 384.902 324.912 385.958 324.912C387.046 324.912 387.918 324.56 388.574 323.856C389.23 323.152 389.558 322.128 389.558 320.784V313.776H392.318ZM403.899 313.608C405.051 313.608 406.075 313.88 406.971 314.424C407.883 314.968 408.595 315.752 409.107 316.776C409.619 317.8 409.875 319 409.875 320.376C409.875 321.768 409.619 322.976 409.107 324C408.595 325.024 407.883 325.808 406.971 326.352C406.075 326.896 405.051 327.168 403.899 327.168C402.699 327.168 401.675 326.872 400.827 326.28C399.979 325.688 399.387 324.904 399.051 323.928V333.288H396.315V313.776H399.051V316.848C399.387 315.872 399.979 315.088 400.827 314.496C401.675 313.904 402.699 313.608 403.899 313.608ZM403.059 316.008C402.291 316.008 401.603 316.192 400.995 316.56C400.387 316.912 399.907 317.424 399.555 318.096C399.203 318.752 399.027 319.512 399.027 320.376C399.027 321.256 399.203 322.024 399.555 322.68C399.907 323.336 400.387 323.848 400.995 324.216C401.603 324.568 402.291 324.744 403.059 324.744C404.275 324.744 405.251 324.36 405.987 323.592C406.723 322.808 407.091 321.736 407.091 320.376C407.091 319.032 406.723 317.968 405.987 317.184C405.251 316.4 404.275 316.008 403.059 316.008ZM420.814 313.608C421.966 313.608 422.99 313.88 423.886 314.424C424.798 314.968 425.51 315.752 426.022 316.776C426.534 317.8 426.79 319 426.79 320.376C426.79 321.768 426.534 322.976 426.022 324C425.51 325.024 424.798 325.808 423.886 326.352C422.99 326.896 421.966 327.168 420.814 327.168C419.614 327.168 418.59 326.872 417.742 326.28C416.894 325.688 416.302 324.904 415.966 323.928V333.288H413.23V313.776H415.966V316.848C416.302 315.872 416.894 315.088 417.742 314.496C418.59 313.904 419.614 313.608 420.814 313.608ZM419.974 316.008C419.206 316.008 418.518 316.192 417.91 316.56C417.302 316.912 416.822 317.424 416.47 318.096C416.118 318.752 415.942 319.512 415.942 320.376C415.942 321.256 416.118 322.024 416.47 322.68C416.822 323.336 417.302 323.848 417.91 324.216C418.518 324.568 419.206 324.744 419.974 324.744C421.19 324.744 422.166 324.36 422.902 323.592C423.638 322.808 424.006 321.736 424.006 320.376C424.006 319.032 423.638 317.968 422.902 317.184C422.166 316.4 421.19 316.008 419.974 316.008ZM436.194 313.608C437.474 313.608 438.626 313.88 439.65 314.424C440.674 314.968 441.474 315.752 442.05 316.776C442.626 317.8 442.914 319 442.914 320.376C442.914 321.768 442.626 322.976 442.05 324C441.474 325.024 440.674 325.808 439.65 326.352C438.626 326.896 437.474 327.168 436.194 327.168C434.914 327.168 433.762 326.896 432.738 326.352C431.73 325.808 430.93 325.024 430.338 324C429.762 322.96 429.474 321.752 429.474 320.376C429.474 319 429.762 317.8 430.338 316.776C430.93 315.752 431.73 314.968 432.738 314.424C433.762 313.88 434.914 313.608 436.194 313.608ZM436.194 315.984C435.49 315.984 434.842 316.144 434.25 316.464C433.658 316.784 433.178 317.28 432.81 317.952C432.458 318.608 432.282 319.416 432.282 320.376C432.282 321.352 432.458 322.168 432.81 322.824C433.178 323.48 433.658 323.968 434.25 324.288C434.842 324.608 435.49 324.768 436.194 324.768C436.898 324.768 437.546 324.608 438.138 324.288C438.73 323.968 439.202 323.48 439.554 322.824C439.922 322.168 440.106 321.352 440.106 320.376C440.106 319.416 439.922 318.608 439.554 317.952C439.202 317.28 438.73 316.784 438.138 316.464C437.546 316.144 436.898 315.984 436.194 315.984ZM449 316.368C449.448 315.504 450.088 314.824 450.92 314.328C451.752 313.816 452.712 313.56 453.8 313.56V316.536H452.984C451.784 316.536 450.816 316.832 450.08 317.424C449.36 318 449 318.96 449 320.304V327H446.264V313.776H449V316.368ZM463.218 324.624V327H461.538C460.13 327 459.058 326.664 458.322 325.992C457.602 325.304 457.242 324.168 457.242 322.584V316.104H455.346V313.776H457.242V310.488H460.002V313.776H463.194V316.104H460.002V322.632C460.002 323.384 460.138 323.904 460.41 324.192C460.698 324.48 461.194 324.624 461.898 324.624H463.218Z" fill="black"/>
<path d="M231.809 74.264V79.4H238.049V81.512H231.809V86.768H238.769V89H229.073V72.056H238.769V74.264H231.809ZM247.448 75.608C248.648 75.608 249.672 75.904 250.52 76.496C251.368 77.088 251.96 77.872 252.296 78.848V71.24H255.056V89H252.296V85.928C251.96 86.904 251.368 87.688 250.52 88.28C249.672 88.872 248.648 89.168 247.448 89.168C246.296 89.168 245.264 88.896 244.352 88.352C243.456 87.808 242.752 87.024 242.24 86C241.728 84.976 241.472 83.768 241.472 82.376C241.472 81 241.728 79.8 242.24 78.776C242.752 77.752 243.456 76.968 244.352 76.424C245.264 75.88 246.296 75.608 247.448 75.608ZM248.288 78.008C247.072 78.008 246.096 78.4 245.36 79.184C244.64 79.952 244.28 81.016 244.28 82.376C244.28 83.736 244.64 84.808 245.36 85.592C246.096 86.36 247.072 86.744 248.288 86.744C249.056 86.744 249.744 86.568 250.352 86.216C250.96 85.848 251.44 85.336 251.792 84.68C252.144 84.024 252.32 83.256 252.32 82.376C252.32 81.512 252.144 80.752 251.792 80.096C251.44 79.424 250.96 78.912 250.352 78.56C249.744 78.192 249.056 78.008 248.288 78.008ZM271.252 75.776V89H268.492V86.12C268.156 87.096 267.572 87.856 266.74 88.4C265.908 88.928 264.94 89.192 263.836 89.192C262.3 89.192 261.068 88.696 260.14 87.704C259.212 86.712 258.748 85.296 258.748 83.456V75.776H261.484V83.168C261.484 84.368 261.788 85.296 262.396 85.952C263.004 86.592 263.836 86.912 264.892 86.912C265.98 86.912 266.852 86.56 267.508 85.856C268.164 85.152 268.492 84.128 268.492 82.784V75.776H271.252ZM281.128 75.608C282.84 75.608 284.256 76.064 285.376 76.976C286.496 77.872 287.192 79.096 287.464 80.648H284.56C284.4 79.816 284.008 79.168 283.384 78.704C282.776 78.224 282.008 77.984 281.08 77.984C280.024 77.984 279.144 78.36 278.44 79.112C277.736 79.848 277.384 80.936 277.384 82.376C277.384 83.816 277.736 84.912 278.44 85.664C279.144 86.416 280.024 86.792 281.08 86.792C282.008 86.792 282.776 86.552 283.384 86.072C284.008 85.592 284.4 84.936 284.56 84.104H287.464C287.192 85.656 286.496 86.888 285.376 87.8C284.256 88.712 282.84 89.168 281.128 89.168C279.848 89.168 278.712 88.896 277.72 88.352C276.744 87.808 275.976 87.024 275.416 86C274.856 84.976 274.576 83.768 274.576 82.376C274.576 81 274.856 79.8 275.416 78.776C275.976 77.752 276.744 76.968 277.72 76.424C278.712 75.88 279.848 75.608 281.128 75.608ZM296.132 75.608C297.332 75.608 298.356 75.904 299.204 76.496C300.052 77.088 300.652 77.872 301.004 78.848V75.776H303.74V89H301.004V85.928C300.652 86.904 300.052 87.688 299.204 88.28C298.356 88.872 297.332 89.168 296.132 89.168C294.98 89.168 293.948 88.896 293.036 88.352C292.14 87.808 291.436 87.024 290.924 86C290.412 84.976 290.156 83.768 290.156 82.376C290.156 81 290.412 79.8 290.924 78.776C291.436 77.752 292.14 76.968 293.036 76.424C293.948 75.88 294.98 75.608 296.132 75.608ZM296.972 78.008C295.756 78.008 294.78 78.4 294.044 79.184C293.324 79.952 292.964 81.016 292.964 82.376C292.964 83.736 293.324 84.808 294.044 85.592C294.78 86.36 295.756 86.744 296.972 86.744C297.74 86.744 298.428 86.568 299.036 86.216C299.644 85.848 300.124 85.336 300.476 84.68C300.828 84.024 301.004 83.256 301.004 82.376C301.004 81.512 300.828 80.752 300.476 80.096C300.124 79.424 299.644 78.912 299.036 78.56C298.428 78.192 297.74 78.008 296.972 78.008ZM314.391 86.624V89H312.711C311.303 89 310.231 88.664 309.495 87.992C308.775 87.304 308.415 86.168 308.415 84.584V78.104H306.519V75.776H308.415V72.488H311.175V75.776H314.367V78.104H311.175V84.632C311.175 85.384 311.311 85.904 311.583 86.192C311.871 86.48 312.367 86.624 313.071 86.624H314.391ZM317.29 71.936C317.29 71.472 317.45 71.088 317.77 70.784C318.09 70.48 318.514 70.328 319.042 70.328C319.57 70.328 319.994 70.48 320.314 70.784C320.65 71.088 320.818 71.472 320.818 71.936C320.818 72.4 320.65 72.776 320.314 73.064C319.994 73.352 319.57 73.496 319.042 73.496C318.514 73.496 318.09 73.352 317.77 73.064C317.45 72.776 317.29 72.4 317.29 71.936ZM320.41 75.776V89H317.674V75.776H320.41ZM330.489 75.608C331.769 75.608 332.921 75.88 333.945 76.424C334.969 76.968 335.769 77.752 336.345 78.776C336.921 79.8 337.209 81 337.209 82.376C337.209 83.768 336.921 84.976 336.345 86C335.769 87.024 334.969 87.808 333.945 88.352C332.921 88.896 331.769 89.168 330.489 89.168C329.209 89.168 328.057 88.896 327.033 88.352C326.025 87.808 325.225 87.024 324.633 86C324.057 84.96 323.769 83.752 323.769 82.376C323.769 81 324.057 79.8 324.633 78.776C325.225 77.752 326.025 76.968 327.033 76.424C328.057 75.88 329.209 75.608 330.489 75.608ZM330.489 77.984C329.785 77.984 329.137 78.144 328.545 78.464C327.953 78.784 327.473 79.28 327.105 79.952C326.753 80.608 326.577 81.416 326.577 82.376C326.577 83.352 326.753 84.168 327.105 84.824C327.473 85.48 327.953 85.968 328.545 86.288C329.137 86.608 329.785 86.768 330.489 86.768C331.193 86.768 331.841 86.608 332.433 86.288C333.025 85.968 333.497 85.48 333.849 84.824C334.217 84.168 334.401 83.352 334.401 82.376C334.401 81.416 334.217 80.608 333.849 79.952C333.497 79.28 333.025 78.784 332.433 78.464C331.841 78.144 331.193 77.984 330.489 77.984ZM347.951 75.56C349.487 75.56 350.719 76.056 351.647 77.048C352.575 78.04 353.039 79.456 353.039 81.296V89H350.303V81.584C350.303 80.4 349.999 79.488 349.391 78.848C348.783 78.192 347.951 77.864 346.895 77.864C345.807 77.864 344.935 78.216 344.279 78.92C343.623 79.608 343.295 80.624 343.295 81.968V89H340.559V75.776H343.295V78.68C343.647 77.688 344.239 76.92 345.071 76.376C345.903 75.832 346.863 75.56 347.951 75.56ZM233.587 110.424V117H230.851V100.056H236.611C238.563 100.056 240.027 100.52 241.003 101.448C241.995 102.376 242.491 103.648 242.491 105.264C242.491 106.864 241.987 108.128 240.979 109.056C239.971 109.968 238.515 110.424 236.611 110.424H233.587ZM236.323 108.192C238.579 108.192 239.707 107.216 239.707 105.264C239.707 104.304 239.435 103.576 238.891 103.08C238.363 102.568 237.507 102.312 236.323 102.312H233.587V108.192H236.323ZM248.346 106.368C248.794 105.504 249.434 104.824 250.266 104.328C251.098 103.816 252.058 103.56 253.146 103.56V106.536H252.33C251.13 106.536 250.162 106.832 249.426 107.424C248.706 108 248.346 108.96 248.346 110.304V117H245.61V103.776H248.346V106.368ZM261.964 103.608C263.244 103.608 264.396 103.88 265.42 104.424C266.444 104.968 267.244 105.752 267.82 106.776C268.396 107.8 268.684 109 268.684 110.376C268.684 111.768 268.396 112.976 267.82 114C267.244 115.024 266.444 115.808 265.42 116.352C264.396 116.896 263.244 117.168 261.964 117.168C260.684 117.168 259.532 116.896 258.508 116.352C257.5 115.808 256.7 115.024 256.108 114C255.532 112.96 255.244 111.752 255.244 110.376C255.244 109 255.532 107.8 256.108 106.776C256.7 105.752 257.5 104.968 258.508 104.424C259.532 103.88 260.684 103.608 261.964 103.608ZM261.964 105.984C261.26 105.984 260.612 106.144 260.02 106.464C259.428 106.784 258.948 107.28 258.58 107.952C258.228 108.608 258.052 109.416 258.052 110.376C258.052 111.352 258.228 112.168 258.58 112.824C258.948 113.48 259.428 113.968 260.02 114.288C260.612 114.608 261.26 114.768 261.964 114.768C262.668 114.768 263.316 114.608 263.908 114.288C264.5 113.968 264.972 113.48 265.324 112.824C265.692 112.168 265.876 111.352 265.876 110.376C265.876 109.416 265.692 108.608 265.324 107.952C264.972 107.28 264.5 106.784 263.908 106.464C263.316 106.144 262.668 105.984 261.964 105.984ZM277.338 103.608C278.538 103.608 279.562 103.904 280.41 104.496C281.258 105.088 281.858 105.872 282.21 106.848V103.776H284.946V117.144C284.946 118.376 284.69 119.464 284.178 120.408C283.682 121.368 282.962 122.12 282.018 122.664C281.074 123.208 279.954 123.48 278.658 123.48C276.802 123.48 275.298 123.04 274.146 122.16C273.01 121.28 272.298 120.088 272.01 118.584H274.722C274.946 119.368 275.378 119.976 276.018 120.408C276.658 120.856 277.474 121.08 278.466 121.08C279.554 121.08 280.45 120.744 281.154 120.072C281.858 119.4 282.21 118.424 282.21 117.144V113.928C281.858 114.904 281.258 115.688 280.41 116.28C279.562 116.872 278.538 117.168 277.338 117.168C276.186 117.168 275.154 116.896 274.242 116.352C273.346 115.808 272.642 115.024 272.13 114C271.618 112.976 271.362 111.768 271.362 110.376C271.362 109 271.618 107.8 272.13 106.776C272.642 105.752 273.346 104.968 274.242 104.424C275.154 103.88 276.186 103.608 277.338 103.608ZM278.178 106.008C276.962 106.008 275.986 106.4 275.25 107.184C274.53 107.952 274.17 109.016 274.17 110.376C274.17 111.736 274.53 112.808 275.25 113.592C275.986 114.36 276.962 114.744 278.178 114.744C278.946 114.744 279.634 114.568 280.242 114.216C280.85 113.848 281.33 113.336 281.682 112.68C282.034 112.024 282.21 111.256 282.21 110.376C282.21 109.512 282.034 108.752 281.682 108.096C281.33 107.424 280.85 106.912 280.242 106.56C279.634 106.192 278.946 106.008 278.178 106.008ZM291.686 106.368C292.134 105.504 292.774 104.824 293.606 104.328C294.438 103.816 295.398 103.56 296.486 103.56V106.536H295.67C294.47 106.536 293.502 106.832 292.766 107.424C292.046 108 291.686 108.96 291.686 110.304V117H288.95V103.776H291.686V106.368ZM304.56 103.608C305.76 103.608 306.784 103.904 307.632 104.496C308.48 105.088 309.08 105.872 309.432 106.848V103.776H312.168V117H309.432V113.928C309.08 114.904 308.48 115.688 307.632 116.28C306.784 116.872 305.76 117.168 304.56 117.168C303.408 117.168 302.376 116.896 301.464 116.352C300.568 115.808 299.864 115.024 299.352 114C298.84 112.976 298.584 111.768 298.584 110.376C298.584 109 298.84 107.8 299.352 106.776C299.864 105.752 300.568 104.968 301.464 104.424C302.376 103.88 303.408 103.608 304.56 103.608ZM305.4 106.008C304.184 106.008 303.208 106.4 302.472 107.184C301.752 107.952 301.392 109.016 301.392 110.376C301.392 111.736 301.752 112.808 302.472 113.592C303.208 114.36 304.184 114.744 305.4 114.744C306.168 114.744 306.856 114.568 307.464 114.216C308.072 113.848 308.552 113.336 308.904 112.68C309.256 112.024 309.432 111.256 309.432 110.376C309.432 109.512 309.256 108.752 308.904 108.096C308.552 107.424 308.072 106.912 307.464 106.56C306.856 106.192 306.168 106.008 305.4 106.008ZM332.707 103.56C334.275 103.56 335.523 104.056 336.451 105.048C337.395 106.04 337.867 107.456 337.867 109.296V117H335.131V109.584C335.131 108.432 334.843 107.544 334.267 106.92C333.691 106.28 332.899 105.96 331.891 105.96C330.819 105.96 329.963 106.304 329.323 106.992C328.699 107.664 328.387 108.656 328.387 109.968V117H325.651V109.584C325.651 108.432 325.363 107.544 324.787 106.92C324.211 106.28 323.419 105.96 322.411 105.96C321.339 105.96 320.483 106.304 319.843 106.992C319.219 107.664 318.907 108.656 318.907 109.968V117H316.171V103.776H318.907V106.536C319.243 105.576 319.803 104.84 320.587 104.328C321.371 103.816 322.291 103.56 323.347 103.56C324.451 103.56 325.403 103.832 326.203 104.376C327.019 104.92 327.611 105.704 327.979 106.728C328.363 105.736 328.979 104.96 329.827 104.4C330.675 103.84 331.635 103.56 332.707 103.56ZM346.125 103.608C347.677 103.608 348.917 104.008 349.845 104.808C350.789 105.592 351.365 106.648 351.573 107.976H348.981C348.869 107.256 348.557 106.68 348.045 106.248C347.549 105.8 346.885 105.576 346.053 105.576C345.365 105.576 344.829 105.744 344.445 106.08C344.077 106.4 343.893 106.84 343.893 107.4C343.893 107.816 344.029 108.152 344.301 108.408C344.573 108.664 344.909 108.864 345.309 109.008C345.725 109.152 346.309 109.312 347.061 109.488C348.053 109.712 348.853 109.944 349.461 110.184C350.085 110.424 350.613 110.808 351.045 111.336C351.493 111.848 351.717 112.552 351.717 113.448C351.717 114.552 351.293 115.448 350.445 116.136C349.613 116.824 348.485 117.168 347.061 117.168C345.413 117.168 344.077 116.784 343.053 116.016C342.045 115.248 341.437 114.176 341.229 112.8H343.893C343.973 113.52 344.293 114.104 344.853 114.552C345.413 115 346.149 115.224 347.061 115.224C347.717 115.224 348.229 115.056 348.597 114.72C348.981 114.368 349.173 113.928 349.173 113.4C349.173 112.936 349.029 112.568 348.741 112.296C348.453 112.024 348.093 111.816 347.661 111.672C347.229 111.512 346.637 111.352 345.885 111.192C344.925 110.968 344.141 110.744 343.533 110.52C342.941 110.296 342.429 109.936 341.997 109.44C341.581 108.928 341.373 108.24 341.373 107.376C341.373 106.256 341.789 105.352 342.621 104.664C343.469 103.96 344.637 103.608 346.125 103.608Z" fill="black"/>
<path d="M408.395 121.888C410.475 121.888 412.203 122.416 413.579 123.472C414.955 124.528 415.883 125.96 416.363 127.768H413.459C413.059 126.744 412.419 125.936 411.539 125.344C410.675 124.736 409.611 124.432 408.347 124.432C407.339 124.432 406.435 124.68 405.635 125.176C404.851 125.672 404.227 126.384 403.763 127.312C403.315 128.224 403.091 129.296 403.091 130.528C403.091 131.744 403.315 132.816 403.763 133.744C404.227 134.656 404.851 135.36 405.635 135.856C406.435 136.352 407.339 136.6 408.347 136.6C409.611 136.6 410.675 136.304 411.539 135.712C412.419 135.104 413.059 134.296 413.459 133.288H416.363C415.883 135.096 414.955 136.528 413.579 137.584C412.203 138.624 410.475 139.144 408.395 139.144C406.795 139.144 405.379 138.784 404.147 138.064C402.915 137.328 401.963 136.312 401.291 135.016C400.619 133.704 400.283 132.208 400.283 130.528C400.283 128.848 400.619 127.36 401.291 126.064C401.963 124.752 402.915 123.728 404.147 122.992C405.379 122.256 406.795 121.888 408.395 121.888ZM425.86 125.608C427.14 125.608 428.292 125.88 429.316 126.424C430.34 126.968 431.14 127.752 431.716 128.776C432.292 129.8 432.58 131 432.58 132.376C432.58 133.768 432.292 134.976 431.716 136C431.14 137.024 430.34 137.808 429.316 138.352C428.292 138.896 427.14 139.168 425.86 139.168C424.58 139.168 423.428 138.896 422.404 138.352C421.396 137.808 420.596 137.024 420.004 136C419.428 134.96 419.14 133.752 419.14 132.376C419.14 131 419.428 129.8 420.004 128.776C420.596 127.752 421.396 126.968 422.404 126.424C423.428 125.88 424.58 125.608 425.86 125.608ZM425.86 127.984C425.156 127.984 424.508 128.144 423.916 128.464C423.324 128.784 422.844 129.28 422.476 129.952C422.124 130.608 421.948 131.416 421.948 132.376C421.948 133.352 422.124 134.168 422.476 134.824C422.844 135.48 423.324 135.968 423.916 136.288C424.508 136.608 425.156 136.768 425.86 136.768C426.564 136.768 427.212 136.608 427.804 136.288C428.396 135.968 428.868 135.48 429.22 134.824C429.588 134.168 429.772 133.352 429.772 132.376C429.772 131.416 429.588 130.608 429.22 129.952C428.868 129.28 428.396 128.784 427.804 128.464C427.212 128.144 426.564 127.984 425.86 127.984ZM452.467 125.56C454.035 125.56 455.283 126.056 456.211 127.048C457.155 128.04 457.627 129.456 457.627 131.296V139H454.891V131.584C454.891 130.432 454.603 129.544 454.027 128.92C453.451 128.28 452.659 127.96 451.651 127.96C450.579 127.96 449.723 128.304 449.083 128.992C448.459 129.664 448.147 130.656 448.147 131.968V139H445.411V131.584C445.411 130.432 445.123 129.544 444.547 128.92C443.971 128.28 443.179 127.96 442.171 127.96C441.099 127.96 440.243 128.304 439.603 128.992C438.979 129.664 438.667 130.656 438.667 131.968V139H435.931V125.776H438.667V128.536C439.003 127.576 439.563 126.84 440.347 126.328C441.131 125.816 442.051 125.56 443.107 125.56C444.211 125.56 445.163 125.832 445.963 126.376C446.779 126.92 447.371 127.704 447.739 128.728C448.123 127.736 448.739 126.96 449.587 126.4C450.435 125.84 451.395 125.56 452.467 125.56ZM478.077 125.56C479.645 125.56 480.893 126.056 481.821 127.048C482.765 128.04 483.237 129.456 483.237 131.296V139H480.501V131.584C480.501 130.432 480.213 129.544 479.637 128.92C479.061 128.28 478.269 127.96 477.261 127.96C476.189 127.96 475.333 128.304 474.693 128.992C474.069 129.664 473.757 130.656 473.757 131.968V139H471.021V131.584C471.021 130.432 470.733 129.544 470.157 128.92C469.581 128.28 468.789 127.96 467.781 127.96C466.709 127.96 465.853 128.304 465.213 128.992C464.589 129.664 464.277 130.656 464.277 131.968V139H461.541V125.776H464.277V128.536C464.613 127.576 465.173 126.84 465.957 126.328C466.741 125.816 467.661 125.56 468.717 125.56C469.821 125.56 470.773 125.832 471.573 126.376C472.389 126.92 472.981 127.704 473.349 128.728C473.733 127.736 474.349 126.96 475.197 126.4C476.045 125.84 477.005 125.56 478.077 125.56ZM499.344 125.776V139H496.584V136.12C496.248 137.096 495.664 137.856 494.832 138.4C494 138.928 493.032 139.192 491.928 139.192C490.392 139.192 489.16 138.696 488.232 137.704C487.304 136.712 486.84 135.296 486.84 133.456V125.776H489.576V133.168C489.576 134.368 489.88 135.296 490.488 135.952C491.096 136.592 491.928 136.912 492.984 136.912C494.072 136.912 494.944 136.56 495.6 135.856C496.256 135.152 496.584 134.128 496.584 132.784V125.776H499.344ZM510.733 125.56C512.269 125.56 513.501 126.056 514.429 127.048C515.357 128.04 515.821 129.456 515.821 131.296V139H513.085V131.584C513.085 130.4 512.781 129.488 512.173 128.848C511.565 128.192 510.733 127.864 509.677 127.864C508.589 127.864 507.717 128.216 507.061 128.92C506.405 129.608 506.077 130.624 506.077 131.968V139H503.341V125.776H506.077V128.68C506.429 127.688 507.021 126.92 507.853 126.376C508.685 125.832 509.645 125.56 510.733 125.56ZM519.357 121.936C519.357 121.472 519.517 121.088 519.837 120.784C520.157 120.48 520.581 120.328 521.109 120.328C521.637 120.328 522.061 120.48 522.381 120.784C522.717 121.088 522.885 121.472 522.885 121.936C522.885 122.4 522.717 122.776 522.381 123.064C522.061 123.352 521.637 123.496 521.109 123.496C520.581 123.496 520.157 123.352 519.837 123.064C519.517 122.776 519.357 122.4 519.357 121.936ZM522.477 125.776V139H519.741V125.776H522.477ZM533.155 136.624V139H531.475C530.067 139 528.995 138.664 528.259 137.992C527.539 137.304 527.179 136.168 527.179 134.584V128.104H525.283V125.776H527.179V122.488H529.939V125.776H533.131V128.104H529.939V134.632C529.939 135.384 530.075 135.904 530.347 136.192C530.635 136.48 531.131 136.624 531.835 136.624H533.155ZM537.998 125.776L541.958 135.496L545.63 125.776H548.678L540.686 145.288H537.638L540.494 138.688L534.926 125.776H537.998ZM437.112 152.264V157.4H443.352V159.512H437.112V164.768H444.072V167H434.376V150.056H444.072V152.264H437.112ZM452.871 164.168L456.615 153.776H459.543L454.503 167H451.191L446.151 153.776H449.079L452.871 164.168ZM474.564 159.752C474.564 160.2 474.532 160.592 474.468 160.928H464.292C464.34 162.288 464.716 163.296 465.42 163.952C466.124 164.608 466.996 164.936 468.036 164.936C468.948 164.936 469.716 164.704 470.34 164.24C470.98 163.776 471.372 163.16 471.516 162.392H474.444C474.268 163.32 473.9 164.144 473.34 164.864C472.78 165.584 472.052 166.152 471.156 166.568C470.26 166.968 469.26 167.168 468.156 167.168C466.876 167.168 465.74 166.896 464.748 166.352C463.772 165.808 463.004 165.024 462.444 164C461.884 162.976 461.604 161.768 461.604 160.376C461.604 159 461.884 157.8 462.444 156.776C463.004 155.752 463.772 154.968 464.748 154.424C465.74 153.88 466.876 153.608 468.156 153.608C469.452 153.608 470.58 153.88 471.54 154.424C472.516 154.952 473.26 155.688 473.772 156.632C474.3 157.56 474.564 158.6 474.564 159.752ZM471.804 159.68C471.836 158.816 471.684 158.096 471.348 157.52C471.028 156.928 470.58 156.496 470.004 156.224C469.444 155.936 468.828 155.792 468.156 155.792C467.084 155.792 466.188 156.12 465.468 156.776C464.748 157.432 464.356 158.4 464.292 159.68H471.804ZM485.318 153.56C486.854 153.56 488.086 154.056 489.014 155.048C489.942 156.04 490.406 157.456 490.406 159.296V167H487.67V159.584C487.67 158.4 487.366 157.488 486.758 156.848C486.15 156.192 485.318 155.864 484.262 155.864C483.174 155.864 482.302 156.216 481.646 156.92C480.99 157.608 480.662 158.624 480.662 159.968V167H477.926V153.776H480.662V156.68C481.014 155.688 481.606 154.92 482.438 154.376C483.27 153.832 484.23 153.56 485.318 153.56ZM500.974 164.624V167H499.294C497.886 167 496.814 166.664 496.078 165.992C495.358 165.304 494.998 164.168 494.998 162.584V156.104H493.102V153.776H494.998V150.488H497.758V153.776H500.95V156.104H497.758V162.632C497.758 163.384 497.894 163.904 498.166 164.192C498.454 164.48 498.95 164.624 499.654 164.624H500.974ZM508.601 153.608C510.153 153.608 511.393 154.008 512.321 154.808C513.265 155.592 513.841 156.648 514.049 157.976H511.457C511.345 157.256 511.033 156.68 510.521 156.248C510.025 155.8 509.361 155.576 508.529 155.576C507.841 155.576 507.305 155.744 506.921 156.08C506.553 156.4 506.369 156.84 506.369 157.4C506.369 157.816 506.505 158.152 506.777 158.408C507.049 158.664 507.385 158.864 507.785 159.008C508.201 159.152 508.785 159.312 509.537 159.488C510.529 159.712 511.329 159.944 511.937 160.184C512.561 160.424 513.089 160.808 513.521 161.336C513.969 161.848 514.193 162.552 514.193 163.448C514.193 164.552 513.769 165.448 512.921 166.136C512.089 166.824 510.961 167.168 509.537 167.168C507.889 167.168 506.553 166.784 505.529 166.016C504.521 165.248 503.913 164.176 503.705 162.8H506.369C506.449 163.52 506.769 164.104 507.329 164.552C507.889 165 508.625 165.224 509.537 165.224C510.193 165.224 510.705 165.056 511.073 164.72C511.457 164.368 511.649 163.928 511.649 163.4C511.649 162.936 511.505 162.568 511.217 162.296C510.929 162.024 510.569 161.816 510.137 161.672C509.705 161.512 509.113 161.352 508.361 161.192C507.401 160.968 506.617 160.744 506.009 160.52C505.417 160.296 504.905 159.936 504.473 159.44C504.057 158.928 503.849 158.24 503.849 157.376C503.849 156.256 504.265 155.352 505.097 154.664C505.945 153.96 507.113 153.608 508.601 153.608Z" fill="black"/>
</svg>
